<svg xmlns="http://www.w3.org/2000/svg" xmlns:xlink="http://www.w3.org/1999/xlink" viewBox="0,0,256,256" width="32px" height="32px" fill-rule="nonzero"><g transform="translate(19.2,19.2) scale(0.85,0.85)"><g fill="#fcf481" fill-rule="nonzero" stroke="none" stroke-width="1" stroke-linecap="butt" stroke-linejoin="miter" stroke-miterlimit="10" stroke-dasharray="" stroke-dashoffset="0" font-family="none" font-weight="none" font-size="none" text-anchor="none" style="mix-blend-mode: normal"><path d="M34.63529,278.58824c-31.60368,0 -57.22353,-25.61985 -57.22353,-57.22353v-186.72941c0,-31.60368 25.61985,-57.22353 57.22353,-57.22353h186.72941c31.60368,0 57.22353,25.61985 57.22353,57.22353v186.72941c0,31.60368 -25.61985,57.22353 -57.22353,57.22353z" id="shape"></path></g><g fill="#000000" fill-rule="evenodd" stroke="none" stroke-width="1" stroke-linecap="butt" stroke-linejoin="miter" stroke-miterlimit="10" stroke-dasharray="" stroke-dashoffset="0" font-family="none" font-weight="none" font-size="none" text-anchor="none" style="mix-blend-mode: normal"><g transform="scale(5.12,5.12)"><path d="M6.40625,16.80078c-3.25391,3.82031 -6.40625,8.43359 -6.40625,12.10156c0,2.11719 1.78125,5.09375 6.13281,5.09375c2.35156,0 4.6875,-0.94531 6.51563,-1.67578c3.08203,-1.23437 37.14063,-16.02344 37.14063,-16.02344c0.32813,-0.16406 0.26953,-0.37109 -0.14453,-0.26953c-0.16406,0.04297 -37.07812,10.04688 -37.07812,10.04688c-0.71094,0.19922 -1.4375,0.30859 -2.14453,0.30859c-3.19141,0 -5.34375,-1.53125 -5.34375,-4.87891c0,-1.29687 0.40625,-2.86328 1.32813,-4.70312z"></path></g></g></g></svg>